<?xml version="1.0" encoding="utf-8"?>
<!-- Generator: Adobe Illustrator 24.1.2, SVG Export Plug-In . SVG Version: 6.00 Build 0)  -->
<svg version="1.1" id="Layer_1" xmlns="http://www.w3.org/2000/svg" xmlns:xlink="http://www.w3.org/1999/xlink" x="0px" y="0px"
	 viewBox="0 0 506 506" style="enable-background:new 0 0 506 506;" xml:space="preserve">
<style type="text/css">
	.st0{fill-rule:evenodd;clip-rule:evenodd;stroke:#000000;stroke-width:3.579200e-02;stroke-miterlimit:10;}
	.st1{fill-rule:evenodd;clip-rule:evenodd;}
</style>
<g transform="rotate(45 253.03 253.03)">
	<g>
		<g>
			<path class="st0" d="M140.1,171.3c-2.1-9.2-4-18.7-6-28.6c-2.1-10.1-4.5-22.1-5.9-31.1c-1.5-9-3.3-15.8-2.4-22.2
				c0.8-6.4,3.2-11.4,7.7-15.8c4.4-4.3,10.7-9.5,18.8-9.9c8-0.3,21.8,1.8,28.8,7.6c6.8,5.7,8.2,4.8,12,26.6
				c3.6,22.1,6.6,62.7,10,103.8c3.1,41.1,7.4,106.9,9.3,140.4c1.8,33.3,0.1,39,1.6,58.5c1.3,19.5,3.9,37.7,6.6,57.8
				c2.5,20.2,5.4,40.3,8.8,61.8c3,1.2,5.1,3.1,6.4,5.7c1.2,2.7,2.2,7.1,1.1,10.2c-1.3,3.1-4.8,7.2-8.1,8.1c-3.5,0.8-9-0.7-12.1-2.9
				c-3.2-2.2-6.2-6.1-6.4-9.6c-0.3-3.4,1.3-6.8,4.9-10.4c-2.2-12.6-4.7-27.3-7.6-45.5c-3-18.1-4.8-37.6-9.9-62.3
				c-5.3-24.9-15.7-60.9-21.7-84.9c-6.2-23.7-10.2-36.2-15-57c-4.8-21-10.5-50.3-13.8-67.3C143.6,187.4,141.3,176.6,140.1,171.3
				L140.1,171.3z"/>
			<path class="st0" d="M143.2,173.1c-2.1-9.2-4-18.7-6-28.6c-2.1-10.1-4.5-22.1-5.9-31.1c-1.5-9-3.3-15.8-2.4-22.2
				c0.8-6.4,3.6-11.5,7.7-15.8c4-4.3,9-9.5,16.5-9.6c7.5,0,21.4,3.2,27.9,9.3c6.2,6,6.7,4,9.9,26.3c3.1,22.6,5.4,65.6,8.8,106.9
				c3.1,41.3,7.8,104.9,10.1,138.4c2.1,33.3,1.2,40.8,3,60.4c1.7,19.6,4.7,37.3,7.1,56.4c2.4,19.2,4.6,38,6.9,57.5
				c4.2,2.6,7,4.9,8.5,7.2c1.4,2.2,1.1,4,0.2,6.2c-0.9,2.3-3.3,6.3-5.8,7.4c-2.9,1.1-7.5,0.9-10.5-0.9c-3-1.9-6.6-6.7-7-9.9
				c-0.3-3.2,1.1-6.2,4.8-9.2c-1.8-12.3-4.1-26.9-6.8-44.9c-2.7-17.9-4.4-37.2-9.5-61.9c-5.3-24.9-15.6-60.9-21.7-84.9
				c-6.2-23.7-10.2-36.2-15-57c-4.8-21-10.5-50.3-13.8-67.3C146.6,189.2,144.3,178.4,143.2,173.1L143.2,173.1z"/>
		</g>
		<path class="st1" d="M146.6,98.5c3.5,0.9,11.8-2.1,12.2-3.6c0.2-1.4-7-3.9-10.5-4.9c-3.7-1-10.5-2.5-10.8-1.1
			C137.3,90.5,142.9,97.5,146.6,98.5L146.6,98.5z"/>
		<path class="st1" d="M152.7,73.8c3.9,0.2,13.6,0,15-1.1c1.3-1.1-2.4-4.6-6.4-5c-4.2-0.2-16,2.2-17.6,3.3
			C142.4,72.1,148.6,73.4,152.7,73.8z"/>
		<path class="st1" d="M165.2,114.3c-0.7,4.6,1.8,19.4,2.1,30.6c0.3,11.1,1.7,34.8-0.2,35.6c-2.1,0.6-9.3-19.5-11.9-31.6
			c-2.7-12-4.2-32.4-3.6-39.9c0.5-7.4,6.7-3.8,6.9-4.7c0.1-0.9-4.5-3.2-6.1-0.9c-1.7,2.2-4.1,4.9-3.7,14.2c0.2,9.5,2,28.5,5.7,41.7
			c3.6,13.2,13.2,36.4,16.1,36.5c2.8-0.3,0.6-23.5,0.7-36.7c-0.1-13,0.3-33.4-0.6-40.9C169.5,110.6,165.8,109.9,165.2,114.3
			L165.2,114.3z"/>
		<path class="st1" d="M178.7,166.6c-0.5,6-0.8,12-0.3,23.4c0.4,11.5,5.6,43.6,2.8,44.8c-3,1-15.1-25.4-20.1-38.2
			c-5-12.8-8.6-34.7-10.1-37.8c-1.7-2.8-2.1,9.6,0.1,20.1c2.1,10.4,7.5,30.7,13,41.7c5.4,11,16.5,24.5,20,23.5
			c3.4-1.3,1.5-15.4,1-30.5c-0.6-15.1-3.2-51.1-4.2-59.1C179.8,146.8,179.1,160.7,178.7,166.6z"/>
		<path class="st1" d="M191.6,259.3c1,0.9,4.4,23.5,3.1,28.6c-1.4,5.1-5.6,10.4-11.1,1.2c-5.8-9.6-21.6-52.7-22.7-56.9
			c-1.1-3.7,11.8,24.8,16.5,33.5c4.5,8.6,8.3,18.5,10.8,17.5C190.5,282.1,190.4,258.6,191.6,259.3L191.6,259.3z"/>
		<path class="st1" d="M180.7,314.2c-0.8,0.9,5.8,16.6,8.9,18.4c3,1.7,7.6,0.1,9.5-7.8c1.6-8,1.7-20.5,1.1-39
			c-0.7-18.6-4.3-62.8-5.1-71.3c-0.9-8.1-0.1,11.6,0.4,21.9c0.3,10.4,1.6,26.7,2,39.5c0.3,12.8,0.1,27-0.3,35.8
			c-0.5,8.7-0.3,15.2-2.9,15.7C191.3,327.7,181.4,313.4,180.7,314.2z"/>
		<path class="st1" d="M202.2,342.3c-0.1,4.8-0.7,8.3-2,11.2c-1.3,2.9-3.3,7.7-5.7,5.3c-2.6-2.6-5.6-9.3-9.5-20.4
			c3.4,10.1,6.4,15.3,9.3,16C197.1,355.1,199.7,351.1,202.2,342.3z"/>
		<path class="st1" d="M204.7,353.2c0.6-1.6,0.2,10.9-0.4,16.6c-0.8,5.7-2.2,17.2-4,17.2c-2.1-0.1-6.3-13.6-7.8-17.7
			c-1.5-4.1-2.2-8.4-0.8-6.8c1.3,1.7,6.7,18.4,8.9,16.9C202.7,377.6,204.1,355,204.7,353.2z"/>
		<path class="st1" d="M205.9,389.8c-0.6,4.5-1.8,12.7-3,13.5c-1.4,0.6-4.3-9.9-4.7-9.5c-0.5,0.5,0.4,8.9,1.6,12.2
			c1.1,3.4,3.9,8.8,5.2,7.6c1.2-1.3,1.9-8.8,2.2-14.9c0.1-6.2-0.6-20.2-0.8-21.8C206.2,375.6,206.4,385.4,205.9,389.8L205.9,389.8z"
			/>
		<path class="st1" d="M225,522.8c-0.4-4.6-1.3-13.8-3.2-29.1c-2.1-15.4-6.4-45.1-8.3-61.9c-1.9-16.8-2.6-34.5-3.1-37.9
			c-0.8-3.2-1.6,7.6-0.9,18.4c0.7,10.9,1.9,27.8,4.4,46c2.2,18.4,7.8,52,9.7,62.9C225.3,532.1,225.2,527.4,225,522.8L225,522.8z"/>
		<path class="st1" d="M220.3,518.7c0.4,0.6-1.7-8-2.7-16c-1.2-7.9-3.3-30.3-3.7-31.1c-0.4-0.6-0.1,18.6,1.1,26.6
			C216,506.2,219.7,517.8,220.3,518.7z"/>
		<path class="st1" d="M212.6,465.3c0.5,0.4-2.1-9.8-2.6-16.2c-0.7-6.4-0.1-21.5-0.7-22.1c-0.5-0.4-3.1,13-2.5,19.4
			C207.4,452.8,212,464.8,212.6,465.3z"/>
		<path class="st1" d="M212.9,351.2c-1.1,3-2.6,5.3-4.8,7.2c-2.3,1.9-5.7,3.6-8.4,4c-2.9,0.3-5.5-0.2-8.3-1.6
			c-2.9-1.4-5.8-3.3-8.8-6.2l6.5,24.3c3.7,1.8,7.2,2.5,10.6,2.1c3.4-0.3,7.5-2.7,9.9-4.7c2.3-2.1,3.6-4.6,3.9-7.7
			C213.4,362.9,213.2,357.1,212.9,351.2L212.9,351.2z"/>
		<path class="st1" d="M198.2,197.4c1.2,4.4-3.9-43.7-6.3-60.9c-2.5-17.1-3-31.4-8-40.7c-5.2-9.1-21.4-13.2-22.5-14.1
			c-1.1-0.8,11.4,4.5,15.4,9.1c3.7,4.5,3.7,0.1,7.3,17.9C187.7,126.8,196.8,192.5,198.2,197.4z"/>
		<path class="st1" d="M182.2,119.2c0.1-0.4-4.1-19.2-7.3-24.3c-3.2-5-11.9-5.9-12-5.6c-0.2,0.3,7.5,2.2,10.9,7.2
			C176.9,101.6,181.9,119.3,182.2,119.2L182.2,119.2z"/>
		<path class="st1" d="M215.1,524.9c1.8,2.8,3.5,4.7,5,5.9c1.5,1.3,2.4,2.3,3.9,1.3c1.4-1,3-3.7,4.8-7.8c0.5,5-0.1,8.3-1.7,10
			c-1.8,1.7-6.1,1.9-8.1,0.3C217,533,215.7,529.9,215.1,524.9L215.1,524.9z"/>
	</g>
</g>
<g transform="matrix(.39789 0 0 .39789 -1674.9 -1321.5)">
	<path image-rendering="auto" color-rendering="auto" d="M5123.1,3682.5c-96.9,39.6-144.8,153.8-106.8,255.1c0,0,0,0,0,0
		c9.1,24.2,22.8,46.3,40.2,65c10.7-0.7,24.4-2.1,32.7-5.5c15.1-6.2,24.3-23.6,39.4-29.8c15.1-6.2,33.2,0.1,48.3-6.1
		c15.1-6.2,24.3-23.6,39.4-29.8c15.1-6.2,33.2,0.1,48.3-6.1c15.1-6.2,24.3-23.6,39.4-29.8c15.1-6.2,33.2,0.1,48.3-6.1
		c8.4-3.4,19.5-12.1,27.8-19.3c0.6-26-3.8-51.9-12.9-76.1C5329.4,3692.8,5220.1,3642.8,5123.1,3682.5
		C5123.1,3682.5,5123.1,3682.5,5123.1,3682.5L5123.1,3682.5z"/>
	<path image-rendering="auto" color-rendering="auto" d="M5395.2,3868.4l1.9,544.9l-352.9-401.4c0,0,33.2,0.1,48.3-6.1
		c15.1-6.2,24.3-23.6,39.4-29.8c15.1-6.2,33.2,0.1,48.3-6.1c15.1-6.2,24.3-23.6,39.4-29.8c15.1-6.2,33.2,0.1,48.3-6.1
		c15.1-6.2,24.3-23.6,39.4-29.8c15.1-6.2,33.2,0.1,48.3-6.1C5370.9,3892,5395.2,3868.4,5395.2,3868.4z"/>
</g>
<g>
	<ellipse cx="240.9" cy="310.6" rx="59" ry="61.6"/>
	<path d="M271,346.8c-5.4-2.8-10.6-4-15.7-5.4c-5.1-1.4-9.9-3.1-14.7-6.7c-6-4.6-11.8-13-11.8-25.9c0-2.8,0.3-5.9,0.9-9.2
		c2.3-12.1,10.7-22.9,18-26.9c7.7-4.3,16.7-5.6,24.6-5.6c4.1,0,7.9,0.4,10.9,0.8c-1.5-1.6-3.1-3.2-4.8-4.6c-1.9-0.1-4-0.2-6.2-0.2
		c-8.2,0-17.8,1.3-26.4,6.1c-8.5,4.8-17.4,16.2-20,29.7c-0.7,3.5-1,6.9-1,10c0,14.3,6.5,24,13.4,29.2c5.4,4.1,10.8,5.9,16,7.4
		c5.2,1.5,10.1,2.6,15,5.1c3.6,1.9,6.4,4.8,8.1,8.7c1-0.9,2.1-1.8,3-2.7C278.3,352.1,275,348.9,271,346.8L271,346.8z"/>
</g>
</svg>
