<?xml version="1.0" encoding="utf-8"?>
<!-- Generator: Adobe Illustrator 24.1.2, SVG Export Plug-In . SVG Version: 6.00 Build 0)  -->
<svg version="1.1" id="Layer_1" xmlns="http://www.w3.org/2000/svg" xmlns:xlink="http://www.w3.org/1999/xlink" x="0px" y="0px"
	 viewBox="0 0 1080 1080" style="enable-background:new 0 0 1080 1080;" xml:space="preserve">
<style type="text/css">
	.st0{fill:#1A1A1A;}
</style>
<path class="st0" d="M1037.1,999.4L646.8,609.1C704,545.9,739,462.2,739,370.4c0-196.1-159.5-355.6-355.6-355.6
	S27.7,174.4,27.7,370.4s159.5,355.6,355.6,355.6c76.4,0,147.3-24.2,205.3-65.4l393.6,393.6c7.6,7.6,17.5,11.4,27.4,11.4
	c9.9,0,19.9-3.8,27.4-11.4C1052.3,1039.1,1052.3,1014.5,1037.1,999.4L1037.1,999.4z M103.8,370.4c0-154.1,125.4-279.5,279.5-279.5
	s279.5,125.4,279.5,279.5S537.5,650,383.4,650S103.8,524.6,103.8,370.4L103.8,370.4z"/>
</svg>
