<?xml version="1.0" encoding="utf-8"?>
<!-- Generator: Adobe Illustrator 24.1.2, SVG Export Plug-In . SVG Version: 6.00 Build 0)  -->
<svg version="1.1" id="Layer_1" xmlns="http://www.w3.org/2000/svg" xmlns:xlink="http://www.w3.org/1999/xlink" x="0px" y="0px"
	 viewBox="0 0 1920 1080" style="enable-background:new 0 0 1920 1080;" xml:space="preserve">
<style type="text/css">
	.st0{fill-rule:evenodd;clip-rule:evenodd;}
</style>
<path class="st0" d="M892.8,864.5c-278.4,0-383.6-296-394.5-361.6c-11-65.8-23.5-99.1-70.1-107.3c-46.5-8.2-34.1,38.3-41.4,64.1
	c-7.3,25.9-69.3,227.4-155.1,237.9c-85.8,10.3-148.8-67.2-172.6-155.1c-23.8-87.9-38.3-274-20.6-305c17.5-31.1,55.9-29,121-15.5
	c65.1,13.4,153,47.5,201.6,54.8c48.6,7.2,281.2,33,289.6,33c8.2,0,2.1,13.4,53.8,15.5c192.3,7.7,377.1,19.4,468.3,211.9l371.2-75.5
	c52.1-10.6,254.3-67.2,290.5-79.6s52.7,2.1,53.8,22.7c1,20.6,5.1,77.6-12.4,204.7c-17.5,127.2-47.5,18.7-34.1-15.5
	c13.4-34.1,31.5-178.5,16-181.7c-82.1-0.4-388.9,91.4-678.8,168.2c0,0,3.1,81.7-36.2,148.8c-39.3,67.2-113.7,142.7-249.9,135
	L892.8,864.5z M271,276.1c29.9,5.1,286.5,52.8,350,50.7c-61.4,11.1-126.1,39.3-130.3,86.2c-6.7-14.6-85.1-77.8-120.4-22.2
	c-4.2-30.8-13.9-43.5-99.2-114.8L271,276.1L271,276.1z"/>
</svg>
